<svg width="342" height="342" viewBox="0 0 342 342" fill="none" xmlns="http://www.w3.org/2000/svg">
<path d="M201.08 171L335.48 36.8133C339.497 32.7962 341.754 27.3478 341.754 21.6667C341.754 15.9856 339.497 10.5371 335.48 6.51999C331.463 2.50284 326.014 0.246033 320.333 0.246033C314.652 0.246033 309.204 2.50284 305.187 6.51999L171 140.92L36.8133 6.51999C32.7961 2.50284 27.3477 0.246038 21.6666 0.246038C15.9855 0.246038 10.5371 2.50284 6.51996 6.51999C2.50281 10.5371 0.246007 15.9856 0.246007 21.6667C0.246007 27.3478 2.50281 32.7962 6.51996 36.8133L140.92 171L6.51996 305.187C4.52042 307.17 2.93335 309.529 1.85028 312.129C0.767216 314.729 0.209595 317.517 0.209595 320.333C0.209595 323.15 0.767216 325.938 1.85028 328.538C2.93335 331.137 4.52042 333.497 6.51996 335.48C8.50317 337.48 10.8627 339.067 13.4623 340.15C16.062 341.233 18.8504 341.79 21.6666 341.79C24.4829 341.79 27.2713 341.233 29.8709 340.15C32.4706 339.067 34.8301 337.48 36.8133 335.48L171 201.08L305.187 335.48C307.17 337.48 309.529 339.067 312.129 340.15C314.729 341.233 317.517 341.79 320.333 341.79C323.15 341.79 325.938 341.233 328.538 340.15C331.137 339.067 333.497 337.48 335.48 335.48C337.479 333.497 339.067 331.137 340.15 328.538C341.233 325.938 341.79 323.15 341.79 320.333C341.79 317.517 341.233 314.729 340.15 312.129C339.067 309.529 337.479 307.17 335.48 305.187L201.08 171Z" fill="#2C1B47"/>
</svg>
